PathFileType	4	(x/y/z)	S04_P20_T07.trc
DataRate	CameraRate	NumFrames	NumMarkers	Units	OrigDataRate	OrigDataStartFrame	OrigNumFrames
240	240	6	51	mm	240	323	369
Frame#	Time	Sternum			R.Acromium			L.Acromium			Top.Head			R.ASIS			L.ASIS			R.PSIS			L.PSIS			R.Great.Tro			L.Great.Tro			R.Iliac.Crest			L.Iliac.Crest			V.Sacral			R.Thigh.Upper.Post			R.Thigh.Lower.Ant			R.Thigh.Lower.Post			R.Thigh.Upper.Ant			R.Knee.Lat			R.Knee.Med			R.Shank.Upper.Post			R.Shank.Lower.Ant			R.Shank.Lower.Post			R.Shank.Upper.Ant			R.Ankle.Lat			R.Ankle.Med			R.Heel.Upper			R.Heel.Med			R.Heel.Lat			R.Toe.Lat			R.Toe.Med			R.Toe.Tip			L.Thigh.Upper.Post			L.Thigh.Lower.Ant			L.Thigh.Lower.Post			L.Thigh.Upper.Ant			L.Knee.Lat			L.Knee.Med			L.Shank.Upper.Post			L.Shank.Lower.Ant			L.Shank.Lower.Post			L.Shank.Upper.Ant			L.Ankle.Lat			L.Ankle.Med			L.Heel.Upper			L.Heel.Med			L.Heel.Lat			L.Toe.Lat			L.Toe.Med			L.Toe.Tip			Cervical.Spine			Back			
		X1	Y1	Z1	X2	Y2	Z2	X3	Y3	Z3	X4	Y4	Z4	X5	Y5	Z5	X6	Y6	Z6	X7	Y7	Z7	X8	Y8	Z8	X9	Y9	Z9	X10	Y10	Z10	X11	Y11	Z11	X12	Y12	Z12	X13	Y13	Z13	X14	Y14	Z14	X15	Y15	Z15	X16	Y16	Z16	X17	Y17	Z17	X18	Y18	Z18	X19	Y19	Z19	X20	Y20	Z20	X21	Y21	Z21	X22	Y22	Z22	X23	Y23	Z23	X24	Y24	Z24	X25	Y25	Z25	X26	Y26	Z26	X27	Y27	Z27	X28	Y28	Z28	X29	Y29	Z29	X30	Y30	Z30	X31	Y31	Z31	X32	Y32	Z32	X33	Y33	Z33	X34	Y34	Z34	X35	Y35	Z35	X36	Y36	Z36	X37	Y37	Z37	X38	Y38	Z38	X39	Y39	Z39	X40	Y40	Z40	X41	Y41	Z41	X42	Y42	Z42	X43	Y43	Z43	X44	Y44	Z44	X45	Y45	Z45	X46	Y46	Z46	X47	Y47	Z47	X48	Y48	Z48	X49	Y49	Z49	X50	Y50	Z50	X51	Y51	Z51	

323	1.3417	361	1281.4	240.79	225.33	1513.4	403.05	244.02	1493.8	52.934	261.35	1836.1	213.88	318.95	1003.1	368.83	319.24	1014.8	121.08	106.76	1032.6	273.32	115.6	1038.9	192.5	237.62	923.66	436.91	198.28	931.62	57.918	229.25	1094.1	411.67	228.33	1098	74.331	90.852	993.86	231.07	322.95	674.11	429.61	421.17	622.5	394.57	353.97	589.44	414.75	391.93	727.97	414.63	397.51	534.52	405.84	381.28	523.45	271.71	357.17	303.9	401.06	439.57	237.69	367.81	369.36	235.33	386.84	424.29	306.14	390.26	400.8	122.27	370.26	431.78	139.38	284.42	350.37	80.658	304.75	369.67	53.212	276.88	355.39	48.52	339.2	514.39	66.485	412.85	566.24	78.053	303.22	616.72	106.68	358.85	157.3	703.86	74.543	226.26	599.09	84.111	155.33	614.49	88.459	222.61	687.93	66.754	179.27	513.09	97.559	179.87	504.58	221.55	70.402	343.87	100.07	129.99	250.19	104.33	67.898	266.45	108.85	132.59	326.43	94.98	92.599	102.53	126.47	94.65	112.77	219.77	13.332	72.744	170.56	19.141	47.741	204.84	17.789	44.953	142.92	202.4	42.192	106.16	231.77	47.593	223.6	289.23	57.697	174.67	184.23	1557.6	228.33	103.16	1301.5	205.57
324	1.3458	366.43	1280.6	241.1	230.48	1512.6	403.18	249.7	1493.1	53.109	266.82	1835.4	214.03	324.49	1002.5	368.89	324.36	1014	121.18	112.12	1032	273.7	120.87	1038.3	192.86	243.13	923.02	437.14	203.07	931.12	58.139	234.93	1093.4	411.87	233.54	1097.4	74.505	96.171	993.25	231.46	327.52	673.18	429.7	425.7	621.55	394.61	358.48	588.52	414.74	396.52	727.03	414.69	402.55	534.02	405.87	386.11	522.49	271.7	367.02	302.53	401.26	450.83	238.12	368.04	380.71	234.22	387.08	434.05	306.25	390.46	414.68	121.82	370.61	445.18	139.51	284.67	365.11	78.969	305.19	384.95	51.92	277.36	370.83	47.04	339.69	529.57	68.541	413.07	581.02	81.03	303.36	630.95	110.83	358.85	160.84	703.89	74.698	229.13	598.7	84.337	158.28	614.48	88.684	225.96	687.55	67.019	181.49	512.89	97.589	182.29	504.34	221.63	71.655	344.19	100.35	130.83	250.26	104.33	68.756	266.78	109.1	133.82	326.49	95.016	92.752	102.65	126.58	94.852	112.87	219.84	13.408	72.869	170.7	19.189	47.814	204.92	17.849	45.122	143.02	202.45	42.158	106.18	231.87	47.375	223.64	289.35	57.36	174.67	189.65	1556.9	228.37	108.6	1300.8	205.52
325	1.35	371.85	1279.9	241.41	235.64	1511.9	403.32	255.37	1492.3	53.309	272.3	1834.7	214.19	330.04	1001.8	368.96	329.49	1013.3	121.29	117.5	1031.4	274.09	126.16	1037.6	193.24	248.65	922.36	437.37	207.89	930.6	58.356	240.6	1092.7	412.06	238.77	1096.7	74.686	101.51	992.61	231.85	332.11	672.23	429.82	430.24	620.56	394.66	362.99	587.57	414.74	401.12	726.05	414.78	407.57	533.49	405.91	390.94	521.53	271.68	376.7	301.24	401.43	461.82	238.59	368.21	391.82	233.21	387.29	443.61	306.39	390.63	428.22	121.5	370.9	458.22	139.75	284.86	379.51	77.432	305.59	399.85	50.781	277.79	385.9	45.726	340.13	544.33	70.685	413.23	595.36	84.061	303.43	644.73	115.01	358.77	164.45	703.89	74.859	232.1	598.29	84.569	161.32	614.44	88.912	229.4	687.16	67.285	183.83	512.67	97.627	184.82	504.09	221.72	72.996	344.53	100.62	131.73	250.33	104.34	69.684	267.12	109.34	135.12	326.54	95.06	92.915	102.78	126.7	95.061	112.99	219.91	13.484	73.001	170.84	19.237	47.893	205	17.91	45.299	143.11	202.5	42.123	106.2	231.96	47.158	223.69	289.48	57.013	174.67	195.07	1556.2	228.43	114.03	1300.2	205.49
326	1.3542	377.28	1279.1	241.74	240.81	1511.1	403.49	261.01	1491.6	53.534	277.78	1833.9	214.36	335.61	1001.1	369.03	334.65	1012.5	121.4	122.9	1030.8	274.47	131.47	1037	193.61	254.2	921.67	437.6	212.74	930.07	58.57	246.25	1092	412.27	244.02	1096	74.874	106.88	991.96	232.25	336.72	671.26	429.94	434.8	619.56	394.72	367.53	586.61	414.75	405.75	725.06	414.88	412.59	532.93	405.96	395.78	520.55	271.66	386.2	300.02	401.57	472.54	239.07	368.34	402.69	232.29	387.47	452.96	306.54	390.74	441.38	121.28	371.12	470.87	140.05	284.98	393.51	76.034	305.93	414.34	49.778	278.15	400.56	44.563	340.52	558.64	72.887	413.3	609.23	87.115	303.43	658.04	119.18	358.62	168.14	703.85	75.028	235.17	597.87	84.806	164.48	614.38	89.143	232.93	686.75	67.55	186.29	512.43	97.674	187.48	503.81	221.83	74.43	344.88	100.88	132.69	250.39	104.35	70.687	267.49	109.57	136.5	326.6	95.11	93.087	102.92	126.82	95.28	113.13	219.99	13.562	73.144	170.98	19.287	47.982	205.09	17.97	45.486	143.21	202.55	42.089	106.22	232.06	46.942	223.73	289.61	56.659	174.67	200.47	1555.5	228.51	119.47	1299.5	205.5
327	1.3583	382.72	1278.3	242.08	245.99	1510.4	403.68	266.62	1490.8	53.783	283.26	1833.2	214.54	341.18	1000.4	369.1	339.82	1011.7	121.5	128.31	1030.1	274.86	136.8	1036.3	193.99	259.77	920.97	437.81	217.62	929.52	58.779	251.89	1091.2	412.48	249.28	1095.4	75.068	112.27	991.28	232.65	341.38	670.29	430.07	439.41	618.55	394.79	372.1	585.63	414.76	410.42	724.05	415	417.62	532.35	406.01	400.64	519.59	271.64	395.5	298.88	401.69	482.98	239.57	368.4	413.29	231.45	387.61	462.1	306.69	390.81	454.15	121.15	371.27	483.13	140.41	285.04	407.1	74.762	306.21	428.39	48.896	278.45	414.78	43.533	340.84	572.48	75.115	413.29	622.61	90.159	303.34	670.87	123.3	358.37	171.9	703.78	75.208	238.35	597.43	85.047	167.73	614.28	89.377	236.55	686.32	67.814	188.88	512.18	97.729	190.26	503.51	221.94	75.964	345.26	101.14	133.72	250.46	104.38	71.769	267.88	109.79	137.96	326.64	95.168	93.272	103.08	126.94	95.508	113.3	220.08	13.641	73.301	171.13	19.338	48.084	205.19	18.03	45.686	143.32	202.6	42.054	106.24	232.17	46.728	223.77	289.74	56.295	174.67	205.88	1554.7	228.62	124.92	1298.7	205.54
328	1.3625	388.16	1277.6	242.43	251.18	1509.6	403.9	272.21	1490.1	54.056	288.75	1832.4	214.73	346.77	999.69	369.18	345.01	1010.9	121.59	133.75	1029.4	275.26	142.15	1035.6	194.37	265.36	920.25	438.03	222.53	928.95	58.986	257.52	1090.5	412.69	254.56	1094.7	75.267	117.68	990.59	233.05	346.09	669.31	430.21	444.06	617.53	394.85	376.73	584.66	414.77	415.16	723.04	415.14	422.66	531.76	406.06	405.51	518.63	271.61	404.59	297.8	401.76	493.11	240.06	368.4	423.6	230.68	387.71	471.02	306.82	390.83	466.49	121.07	371.35	494.95	140.81	285.04	420.23	73.604	306.43	441.96	48.118	278.68	428.53	42.619	341.1	585.82	77.336	413.19	635.48	93.159	303.16	683.19	127.34	358.03	175.75	703.67	75.399	241.65	596.98	85.291	171.11	614.15	89.614	240.28	685.88	68.078	191.6	511.9	97.795	193.19	503.19	222.07	77.601	345.65	101.38	134.81	250.53	104.41	72.933	268.3	110	139.51	326.69	95.234	93.469	103.24	127.07	95.749	113.49	220.19	13.724	73.475	171.29	19.393	48.204	205.3	18.091	45.902	143.43	202.65	42.018	106.27	232.27	46.517	223.81	289.89	55.923	174.67	211.27	1554	228.76	130.37	1298	205.6
